<svg xmlns="http://www.w3.org/2000/svg" xmlns:xlink="http://www.w3.org/1999/xlink" width="71" height="71" viewBox="0 0 71 71"><defs><path id="weoka" d="M247 61a34 34 0 1 1-68 0 34 34 0 0 1 68 0zm-46.92-1.6a7.3 7.3 0 0 0 2.38 5.45 8.2 8.2 0 0 0 2.66 1.61 9.63 9.63 0 0 0 7.75-.48c1.39-.7 2.61-1.74 3.67-3.1l.18.86a3.9 3.9 0 0 0 1.57 2.47c.8.56 1.97.84 3.5.84.55 0 1.17-.04 1.87-.11.7-.08 1.43-.2 2.22-.34v-7.25c-.79-.06-1.33-.25-1.63-.57-.3-.32-.46-.88-.46-1.7v-4.62c0-3.39-1.02-5.93-3.08-7.62-2.05-1.7-4.99-2.54-8.8-2.54a19.4 19.4 0 0 0-10.74 3.04l2.5 5.35a18.46 18.46 0 0 1 3.62-1.93c1.15-.44 2.4-.66 3.76-.66 1.46 0 2.5.27 3.15.82.65.54.98 1.37.98 2.5v.72a11.2 11.2 0 0 0-4.8-.9c-1.52 0-2.9.19-4.15.58-1.26.4-2.34.95-3.24 1.68a7.95 7.95 0 0 0-2.14 2.58c-.51 1-.77 2.1-.77 3.31zm25.84 12.68H200.4v7.62h25.52zM208.2 58.62c0-.78.35-1.44 1.04-1.95a4.3 4.3 0 0 1 2.63-.77c.48 0 1.03.06 1.63.18.6.12 1.17.27 1.68.46v1.76c0 .3-.1.6-.32.89a3.7 3.7 0 0 1-.81.79 5.71 5.71 0 0 1-3.04.9c-.82 0-1.49-.2-2.02-.63a2 2 0 0 1-.8-1.63z"/></defs><g><g transform="translate(-177 -25)"><use fill="#18a3dd" xlink:href="#weoka"/></g></g></svg>